# xmcd
# Track frame offsets:
# 150
# 16723
# 33680
# 53638
# 66585
# 81018
# 95300
# 105895
# 122058
# 136158
# 152158
# 167543
# 179865
# 193033
#
# Disc length: 2764 seconds
# Revision: 0
# Processed by: cddbd v1.4PL0 Copyright (c) Steve Scherf et al.
# Submitted via: VisiTrax 2.9.5.180 - For more info visit www.synapsa.com
#
DISCID=b30aca0e
DTITLE=Richie Kavanagh - A travellin' man
DYEAR=1995
DGENRE=Irsk
TTITLE0=A travellin' man
TTITLE1=Them great chevy sheep
TTITLE2=So hard to be hungry
TTITLE3=My first marquee dance
TTITLE4=Me little volkswagon
TTITLE5=Her name is Nancy
TTITLE6=Fagan's chipper van
TTITLE7=A ferguson tractor
TTITLE8=No more beer
TTITLE9=Goin' to be a wedding
TTITLE10=Aon focal eile
TTITLE11=A little bit a lastic
TTITLE12=Keep the shovel tipping
TTITLE13=A T.D. In the dail
EXTD=
EXTT0=
EXTT1=
EXTT2=
EXTT3=
EXTT4=
EXTT5=
EXTT6=
EXTT7=
EXTT8=
EXTT9=
EXTT10=
EXTT11=
EXTT12=
EXTT13=
PLAYORDER=
